<svg width="1555" height="325.41635" xmlns="http://www.w3.org/2000/svg">

 <g>
  <title>Layer 1</title>
  <g id="svg_1">
   <path id="svg_2" d="m190.44335,0c-22.437,0.041 -49.286,9.8761 -68.781,24.312c-20.086,14.874 -42.858,33.473 -57.281,56.562c-1.6881,-1.5964 -3.499,-3.2824 -4.9062,-4.7188c-9.3444,-9.5376 -22.192,-12.228 -25.906,-14.656c-3.9255,-2.5658 -7.8112,-5.3895 -11.812,-8.3125c-3.0237,-2.2089 -6.6912,-3.1182 -9.875,-2.875c-3.4851,0.26621 -6.4316,1.5231 -8.875,4.0312c-1.2217,1.2541 -2.4199,2.9348 -2.875,5.3438s0.2858,5.5622 1.9062,7.5938c6.9662,8.7334 15.073,16.29 19.344,21.5c6.7708,8.2598 11.739,15.943 20.094,22.562c0.76786,0.6084 1.6187,1.1256 2.4375,1.6875c-6.4409,10.424 -10.461,21.874 -15.875,35.656c-5.9186,15.066 -11.413,33.145 -12.438,50.531c-6.1078,18.274 -9.7407,36.376 -6.9062,52.469c1.2391,7.0352 4.7529,13.618 9.625,19s11.257,9.707 18.906,10.812c13.719,1.9826 25.352,-4.6658 35.312,-11.781c4.1303,-2.9505 8.0559,-5.9765 11.906,-8.875c-2.9049,10.353 -5.9696,20.12 -8.7188,25.531c-1.7999,3.5425 -1.6713,7.837 -0.375,10.969s3.4205,5.3974 5.8125,7.125c4.7841,3.4553 11.546,5.4718 18.125,1.875c9.6822,-5.2937 15.409,-12.642 19.281,-19.5s6.2781,-13.124 9.8125,-18.188c2.7284,-3.9092 6.9953,-5.2826 11.781,-4.8125s9.1312,3.2254 10.625,6.0312c2.6556,4.9881 2.9279,9.232 2.25,14.781s-2.5757,12.138 -3.7812,19.906c-2.5425,16.384 18.182,26.902 32.719,17.031c9.9826,-6.7783 17.898,-18.028 24.281,-29.281c0.27202,0.37358 0.5017,0.78036 0.8125,1.125c3.0138,3.342 7.1285,4.6241 10.656,4.8438c7.0555,0.43928 13.009,-1.6247 17.625,-6.6562c6.6294,-7.2258 10.592,-14.04 13.844,-20.406c1.8118,-0.54779 3.6378,-1.0583 5.4375,-1.7188c0.44197,-0.1619 0.94023,-0.33499 1.5312,-0.5625a7.6051,7.6051 0 0 0 0.0312,-0.0312c0.0123,-0.005 0.0191,0.005 0.0312,0l0.0937,-0.0312c0.76113,-0.29365 1.5119,-0.59145 2.3438,-0.9375a7.6051,7.6051 0 0 0 0.0312,0c4.5152,-1.8798 8.8338,-4.2163 13.062,-6.75c-0.15024,1.8058 -0.27287,3.5522 -0.5625,5.5625c-1.191,8.2664 -2.2703,16.261 -0.1875,23.875c1.0414,3.8071 3.2464,7.8282 7.125,10.344s8.6789,3.1006 13.5,2.4375c7.925,-1.09 13.531,-6.3836 17.25,-11.656s6.157,-10.989 8.25,-15.312c3.294,-6.8052 5.122,-15.259 6.5625,-23.562c0.49314,-0.27867 0.92944,-0.4686 1.4375,-0.78125c2.5614,-1.5763 5.055,-3.6574 7.5,-6c3.9995,1.6265 8.7409,2.7285 14.062,2c3.543,0.81965 8.144,1.7476 13.531,0.59375c3.6027,0.60155 9.2564,0.93647 15.438,-1.75c3.1795,0.0363 7.6626,-0.1904 13.125,-2.3125c1.4726,-0.5721 2.6192,-1.4234 3.5625,-2.375c1.4223,-0.62946 2.8817,-1.2631 4.9375,-2.4375c2.8072,-1.6037 5.8685,-3.3217 8.4375,-7.0938c1.0488,-1.5401 1.6065,-2.6714 2.1875,-4.6562c0.29051,-0.99243 0.82721,-1.992 0.3125,-4.6875c-0.25735,-1.3477 -1.0711,-3.4968 -3.0938,-5s-4.5154,-1.7119 -6,-1.5c-4.6222,0.65983 -8.0412,1.2194 -11.094,1.4688c-3.3775,-0.95174 -6.3388,-1.3841 -9,-1.6562c-0.351,-0.25107 -0.58903,-0.56114 -1,-0.78125c-3.327,-1.782 -6.8905,-2.9765 -9.6875,-3.9062c-0.0249,-0.014 -0.0701,-0.0493 -0.0937,-0.0625c-3.2482,-1.8088 -6.5699,-2.8396 -9.5938,-3.6875c-1.4488,-1.6384 -2.9621,-2.8278 -4.5312,-3.8438c2.801,-11.466 4.6366,-24.927 4.9062,-41c0.59946,-35.73 -9.0729,-75.761 -31.156,-106.84c-21.819,-30.71 -56.604,-52.298 -103.41,-49.812c-9.1781,-3.5794 -19.046,-5.9423 -29.594,-6.625c-1.4401,-0.0932 -2.9215,-0.12778 -4.4375,-0.125l0.0052,-0.00345z"/>
   <path id="svg_3" fill="#785035" d="m212.96335,252.89l-2.1429,28.214c-1.0282,13.538 14.407,10.286 18.929,5.3572c12.494,-13.618 15,-25.238 22.5,-37.857l-39.2861,4.2858z"/>
   <path id="svg_4" fill="#fca" d="m101.94335,220.35s-9.8242,50.512 -19.445,69.448c-3.1351,6.1704 7.0592,13.169 13.132,9.849c16.604,-9.078 18.085,-23.275 26.516,-35.355c8.9367,-12.804 29.326,-9.3046 35.355,2.0203c6.9942,13.137 1.4584,25.115 -0.75762,39.396c-1.3088,8.434 11.215,16.214 20.961,9.5964c20.456,-13.89 37.881,-60.609 37.881,-60.609l62.124,-15.152c0.71065,0.0444 3.4966,11.027 1.0102,28.284c-2.3095,16.03 -2.6919,30.035 11.869,28.032c10.278,-1.4136 15.33,-13.705 19.698,-22.728c7.2794,-15.039 9.3439,-49.245 9.3439,-49.245l-162.63,-50.287l-55.05748,46.7503z"/>
   <path id="svg_5" fill="#b1764f" d="m156.99335,173.59l-44.625,37.906l-12,16.406c-1.1424,5.3954 -2.8524,13.08 -4.9375,21.531c4.6016,7.7004 12.013,19.174 19.688,27.594c2.1189,-4.2964 4.1754,-8.627 7.0312,-12.719c8.9367,-12.804 29.314,-9.3249 35.344,2c3.2302,6.0674 3.7724,11.899 3.2188,17.812c14.658,-0.43412 30.102,1.1827 37.438,6.7812c10.384,-17.323 17.438,-36.219 17.438,-36.219l17.844,-4.3438c1.3148,-2.8102 2.2812,-4.9375 2.2812,-4.9375l-40.906,-60.125l-37.812,-11.688l-0.0027,0.0021zm132.28,40.938l-17.844,0.875l-4.6875,26.844l10.969,-2.6875c0.71065,0.0444 3.4864,11.024 1,28.281c-0.07749,0.53787 -0.14609,1.061 -0.21875,1.5938c9.6794,-0.80045 21.608,-0.07294 30.625,6.125c0.38943,-0.81701 0.77988,-1.66 1.1562,-2.4375c7.2794,-15.039 9.3438,-49.219 9.3438,-49.219l-30.344,-9.375l0.00025,0.0002z"/>
   <path id="svg_6" fill="#5a4d45" d="m230.27335,14.125c5.6677,37.61 -6.5245,62.401 -20.75,84.25l-84.085,-12.026c16.449,34.866 28.28,45.42 32.554,64.807c6.566,12.627 2.8972,73.129 26.048,97.939c12.642,13.548 32.404,18.669 50.733,15.949c13.548,-2.0106 27.48,-7.1765 39.229,-15.626c7.3498,-2.4014 36.434,-6.3907 47.146,-3.7938c13.772,-8.4748 29.443,-32.4 30.281,-82.344c1.1188,-66.686 -35.744,-150.28 -121.16,-149.16l0.004,0.0048z"/>
   <path id="svg_7" fill="#4c413a" d="m171.77335,139.34l-17.375,8.5312c1.7717,1.0845 3.0216,2.1811 3.5938,3.2812c6.566,12.627 0.59909,74.19 23.75,99c10.979,11.766 29.052,17.703 45.625,17.281c14.864,-0.81044 36.467,-7.4622 47.594,-16.719c4.0022,0.53171 7.8779,0.54847 10.812,-0.5625c1.2442,-0.47102 2.4142,-1.0163 3.5312,-1.625c1.8578,-0.0683 3.5787,-0.35513 5.0625,-0.90625c0.36998,-0.13742 0.73385,-0.28924 1.0938,-0.4375c4.1614,3.1464 12.561,6.5156 25.688,-1.5625c3.221,-1.9822 6.5663,-4.8161 9.7812,-8.625c4.7762,2.2133 11.525,4.6516 16.281,3.4688c3.6465,0.82529 9.2424,1.7253 12.938,0.5c2.6519,0.5334 8.0983,1.1711 13,-1.1562c0.22236,-0.10558 0.45267,-0.2438 0.65625,-0.40625c2.1441,0.13614 7.0419,0.1483 12.25,-1.875c0.62381,-0.24235 1.1292,-0.75252 1.5312,-1.4375c2.3379,-0.97483 9.4511,-4.1431 11.844,-7.6562c0.77132,-1.1326 2.1066,-4.2249 0.75,-4.0312c-5.0373,0.7191 -9.26,1.5362 -13.312,1.7188c-0.25299,-0.20566 -0.50439,-0.38149 -0.8125,-0.46875c-3.9247,-1.1115 -7.6244,-1.5335 -10.344,-1.6875c-0.347,-0.60358 -0.77441,-1.0723 -1.2812,-1.3438c-2.6995,-1.4459 -6.5669,-2.7983 -9.3438,-3.7188c-0.15892,-0.11513 -0.32668,-0.21598 -0.5,-0.3125c-2.9064,-1.6185 -7.4306,-2.9486 -10.719,-3.8125c-0.27098,-0.5255 -0.56399,-1.0337 -0.90625,-1.5c-1.4844,-1.6787 -4.45,-3.448 -7.625,-5.0312c0.31974,-1.088 0.63813,-2.1739 0.9375,-3.3125c-9.1516,26.803 -20.869,34.696 -27,32.594c-3.787,-1.2984 -5.8776,-3.2707 -6.9375,-5.4062c5.4481,-8.9725 8.0946,-19.794 10.031,-28.625c2.9835,-13.605 5.2845,-41.497 1.875,-59.938c0.26747,25.135 -1.5759,50.295 -4,60.344c-2.5398,10.529 -7.512,22.056 -15,32.5c-2.2339,3.1159 -4.3429,2.5739 -5.125,2.0625c5.499,-8.033 9.5262,-18.568 12.656,-27.719c5.8232,-17.024 5.8208,-47.061 3.3125,-68.688c-0.35355,31.466 -2.3899,57.163 -6.0938,67.75c-6.5191,18.635 -12.746,32.54 -23.969,35.156c-1.3008,0.30321 -1.8277,-1.0613 -2,-2.5938c5.3582,-5.3289 9.7906,-11.37 12.875,-17.969c11.852,-25.355 14.176,-55.385 9.7188,-84.719c-0.1121,25.742 -3.1156,73.09 -22.625,94.469c-11.483,12.583 -33.513,24.445 -59.344,25.188c-11.253,0.32344 -24.22,-5.2695 -36.094,-15.344c-17.701,-15.019 -16.781,-104.66 -16.781,-104.66l0.0003,0.00515z"/>
   <path id="svg_8" fill="#fca" d="m70.47335,97.89c-2.8571,-3.9286 -10.838,-10.7 -16.446,-16.424c-7.0619,-7.208 -18.451,-9.5612 -24.621,-13.594c-4.1471,-2.7107 -8.1556,-5.6399 -12.156,-8.5625c-1.5715,-1.148 -3.2549,-1.5228 -4.7812,-1.4062c-3.3579,0.25649 -5.9042,2.8646 -4.5,4.625c6.4784,8.122 14.401,15.484 19.281,21.438c7.0252,8.5703 11.734,15.699 18.938,21.406c4.9826,3.9479 13.31,7.9027 19.781,10.656c-18.867,29.45 -56.755,94.749 -49.781,134.34c1.8699,10.617 11.456,22.052 22.125,23.594c22.39,3.2358 40.334,-23.287 61.438,-31.438c17.25,-6.6618 30.218,-5.1491 44.281,-17.156c17.252,-14.729 28.946,-37.698 26.438,-60.348c-6.9664,-62.909 -72.138,-73.92 -99.996,-67.134l-0.0008,0.0037z"/>
   <path id="svg_9" fill="#5a4d45" d="m149.35335,102.98c-62.826,12.745 -101.07,56.959 -111.07,107.02c-1.3618,1.192 -3.4598,2.3164 -5.6562,3.3125c5.3561,0.9227 11.668,-0.99193 15.344,-7.2188c17.37,-29.426 31.56,-42.559 51.781,-59.281c12.54,-10.371 27.013,-18.668 42.156,-24.625c6.5848,-2.5905 18.906,-3.2188 18.906,-3.2188l-3.0224,-16.579c-1.5647,-1.3223 -6.4279,0.70438 -8.4436,0.59099l0.0052,-0.00089z"/>
   <path id="svg_10" fill="#6c5d53" d="m190.43335,7.5938c-20.064,0.03675 -46.2,9.4774 -64.25,22.844c-25.082,18.574 -53.709,42.74 -64.125,72.188c-14.108,12.886 -18.513,27.399 -26.938,48.844c-6.2155,15.822 -11.931,35.051 -12.156,52.125c-0.0669,5.0738 4.3379,8.8084 9.6875,9.7188c2.1872,-0.99322 4.2685,-2.1252 5.625,-3.3125c9.2457,-8.0924 15.084,-23.947 23,-33.344c16.25,-19.29 39.587,-38.223 60.875,-51.75c10.981,-6.9772 17.884,-5.6159 28,-13.656c2.4463,-1.9443 0.78125,-7.5625 0.78125,-7.5625l5,0.28125c-7.0359,-5.2058 -16.599,-10.207 -27.156,-13.625c0.47353,-0.27139 0.94426,-0.54733 1.4375,-0.8125c29.186,2.3108 46.433,11.488 57.062,24.75c22.612,-27.414 32.866,-8.3277 23.5,20.219c20.125,8.7026 48.412,-63.312 64.906,-75.25c-2.1474,-3.1479 -4.4121,-6.2442 -6.8125,-9.25c2.0945,1.8018 4.0924,3.5436 6.5625,5.6875c1.4562,1.2639 5.1404,0.18645 2.9688,-2.6875c-1.1886,-1.573 -2.3985,-3.0555 -3.5938,-4.5c-1.2075,-1.2183 -2.4585,-2.4111 -3.7188,-3.5938c3.5853,2.5132 6.852,5.0431 9.4375,7.4688c3.7011,3.4723 6.8589,1.9633 2.6875,-4.2812c-1.7578,-2.6315 -1.4488,-2.2623 -3.2812,-4.625c-0.44899,-0.39456 -0.91981,-0.76725 -1.375,-1.1562c7.3468,3.2155 14.091,6.3914 19.438,9.3438c8.0336,4.4362 14.16,2.165 12.562,-4.2812c-19.346,-20.403 -45.87,-33.705 -80.281,-33.25c-2.2914,0.03027 -4.6344,0.15223 -7,0.3125c-8.9226,-3.6669 -18.555,-6.0488 -28.906,-6.7188c-1.2794,-0.0828 -2.5999,-0.12745 -3.9375,-0.125l0.00025,-0.00145zm-33.531,97.094l3.9062,14.281l0.03125,0l-3.9375,-14.281l0.00005,0z"/>
   <path id="svg_11" fill="#fca" d="m159.38335,155.03s22.305,-22.002 26.804,-33.567c6.9086,-17.761 7.8736,-32.916 4.2812,-50.375c-0.45523,-2.2124 -3.2178,-4.9503 -5,-3.5625c-5.5759,4.342 -7.3973,12.045 -11.438,17.844c-6.3159,9.0643 -12.362,13.283 -17.844,22.875c-2.172,3.8004 -8.942,18.933 -8.942,18.933"/>
   <path id="svg_12" d="m91.89335,173.24c-1.1415,3.8059 -2.1723,11.436 1.7857,11.786c3.2619,0.28799 8.9873,-1.0897 11.607,-5.1786c2.7728,-4.3276 1.5039,-9.4564 -2.5,-11.786c-2.2678,-1.3193 -9.1853,-0.51478 -10.893,5.1786l0.0003,0z"/>
   <path id="svg_13" d="m42.07335,256.99c-1.4184,1.6107 -1.9289,5.4056 0.17857,5c2.18,-0.41952 3.425,-0.29521 4.6429,-2.6786c0.46282,-0.90574 -0.21529,-2.308 -1.0714,-2.8571c-1.4064,-0.90218 -2.6457,-0.71829 -3.75,0.53571l-0.00007,-0.00001z"/>
   <path id="svg_14" fill="#d38d5f" d="m187.04335,91.56s0.95319,-19.711 -2.9042,-13.006c-8.3334,14.486 -20.661,31.645 -26.138,46.972c-2.6882,7.523 -5.2303,13.645 0.12627,15.405c7.3549,2.4166 17.804,-15.531 17.804,-15.531s-11.782,13.7 -14.9,8.8388c-3.2203,-5.0203 16.041,-34.709 21.339,-47.225c1.95,-4.6057 4.672,4.5457 4.672,4.5457l0.00093,0.0005z"/>
   <path id="svg_15" fill="#5a4d45" d="m343.99335,207.62l-0.75,4.7812c4.1845,5.5 -0.76636,9.6911 0.5625,16.5c0.41503,2.1266 7.3362,2.3808 8.4688,0.1875c3.9167,-7.5851 2.5485,-10.364 0.6875,-15.812c-1.6917,-1.9132 -5.3066,-3.9184 -8.9688,-5.6562l0,-0.0005zm12.688,7.9375c1.4583,2.5882 1.1097,11.422 0.375,15.281c-0.41864,2.1992 6.2871,3.4669 7.5938,1.8125c2.6812,-3.3949 1.4707,-9.7931 0.3125,-13.844c-2.672,-1.4381 -5.7163,-2.492 -8.2812,-3.25l-0.0001,0.0005zm10.462,3.9545c1.2131,4.3414 1.3513,8.5306 0.54013,13.093c-0.38754,2.1796 5.7971,3.1104 6.6374,1.7554c2.8743,-4.6351 1.2355,-7.7551 -0.20175,-11.896c-1.4854,-0.76797 -5.2157,-2.2956 -6.9758,-2.9518l0.00002,-0.0006zm9.483,4.5509c1.3743,2.8928 1.4909,6.4332 0.91069,9.5884c0.087,2.1649 8.5727,1.873 9.3321,-0.15625c0.8841,-2.3625 0.46862,-5.2612 -0.0937,-7.4375c-0.22303,-0.17394 -0.44761,-0.32946 -0.71875,-0.40625c-3.0122,-0.85303 -7.0247,-1.357 -9.4303,-1.5884l-0.00004,0zm23.555,0.33839c-4.0299,0.57528 -7.5267,1.2056 -10.844,1.5312c0.51475,2.0412 0.33747,2.6378 0.21171,4.4688c1.9255,1.385 8.2098,0.23642 9.882,-1.9687c0.77132,-1.1326 2.1066,-4.2249 0.75,-4.0312l0.00029,-0.0001z"/>
  </g>
  <text stroke="#000" xml:space="preserve" text-anchor="start" font-family="'Reem Kufi'" font-size="250" id="svg_16" y="250.51303" x="456.89901" stroke-width="0" fill="#6d5d52">Armadillo</text>
 </g>
</svg>